<svg width="29" height="29" viewBox="0 0 29 29" fill="none" xmlns="http://www.w3.org/2000/svg">
<path d="M27.25 14.125C27.25 21.3737 21.3737 27.25 14.125 27.25C6.87626 27.25 1 21.3737 1 14.125C1 6.87626 6.87626 1 14.125 1C21.3737 1 27.25 6.87626 27.25 14.125Z" stroke="#5255A5" stroke-width="2" stroke-linecap="round" stroke-linejoin="round"/>
<path d="M13.0154 6.88933C13.4818 5.99002 14.7682 5.99002 15.2346 6.88933L16.9911 10.2758L20.7151 11.0091C21.667 11.1966 22.0519 12.3499 21.4031 13.0713L18.7625 16.0081L19.2475 19.9383C19.3696 20.9278 18.3408 21.6551 17.4487 21.2098L14.125 19.5508L10.8013 21.2098C9.90917 21.6551 8.88036 20.9278 9.00248 19.9383L9.48748 16.0081L6.84686 13.0713C6.19817 12.3499 6.58292 11.1966 7.53486 11.0091L11.2589 10.2758L13.0154 6.88933Z" stroke="#5255A5" stroke-width="2" stroke-linecap="round" stroke-linejoin="round"/>
</svg>
