<svg width="24" height="24" viewBox="0 0 24 24" fill="none" xmlns="http://www.w3.org/2000/svg">
<g clip-path="url(#clip0_3_822)">
<path d="M8.7892 2C9.8012 1.67531 10.8801 1.5 12 1.5C13.1199 1.5 14.1988 1.67531 15.2108 2M22.3097 10C22.4346 10.6474 22.5 11.3161 22.5 12C22.5 17.799 17.799 22.5 12 22.5C6.201 22.5 1.5 17.799 1.5 12C1.5 11.3161 1.56539 10.6474 1.69025 10" stroke="#6043A7" stroke-width="1.5" stroke-linecap="round" stroke-linejoin="round"/>
<path d="M12 20C14.6203 20 16.8483 18.3203 17.666 15.979C17.9973 15.0303 17.0237 14.2671 16.0347 14.4444C14.9631 14.6365 13.5421 14.8182 12 14.8182C10.4579 14.8182 9.03685 14.6365 7.96525 14.4444C6.9762 14.2671 6.00265 15.0303 6.33395 15.979C7.15165 18.3203 9.37965 20 12 20Z" stroke="#6043A7" stroke-width="1.5" stroke-linecap="round" stroke-linejoin="round"/>
<path d="M17.531 2.2685C17.6921 1.83303 18.308 1.83303 18.469 2.2685L19.591 5.3031L22.1009 6.55255C22.4704 6.7365 22.4704 7.26375 22.1009 7.44775L19.591 8.6972L18.469 11.7317C18.308 12.1672 17.6921 12.1672 17.531 11.7317L16.409 8.6972L13.8991 7.44775C13.5296 7.26375 13.5296 6.7365 13.8991 6.55255L16.409 5.3031L17.531 2.2685Z" stroke="#6043A7" stroke-width="1.5" stroke-linejoin="round"/>
<path d="M6.46895 2.2685C6.30795 1.83303 5.69205 1.83303 5.531 2.2685L4.409 5.3031L1.89913 6.55255C1.52956 6.7365 1.52956 7.26375 1.89913 7.44775L4.409 8.6972L5.531 11.7317C5.69205 12.1672 6.30795 12.1672 6.46895 11.7317L7.591 8.6972L10.1009 7.44775C10.4704 7.26375 10.4704 6.7365 10.1009 6.55255L7.591 5.3031L6.46895 2.2685Z" stroke="#6043A7" stroke-width="1.5" stroke-linejoin="round"/>
</g>
<defs>
<clipPath id="clip0_3_822">
<rect width="24" height="24" fill="white"/>
</clipPath>
</defs>
</svg>
