<svg width="80" height="80" viewBox="0 0 80 80" fill="none" xmlns="http://www.w3.org/2000/svg">
<path d="M55.3 53.5766C54.6756 55.4746 51.991 55.4746 51.3666 53.5766L47.1701 40.8164C46.9646 40.1919 46.4748 39.7021 45.8503 39.4966L33.0901 35.3001C31.1921 34.6757 31.1921 31.9911 33.0901 31.3667L45.8503 27.1702C46.4748 26.9647 46.9646 26.4749 47.1701 25.8504L51.3666 13.0902C51.991 11.1923 54.6756 11.1923 55.3 13.0902L59.4965 25.8504C59.702 26.4749 60.1918 26.9647 60.8163 27.1702L73.5765 31.3667C75.4745 31.9911 75.4745 34.6757 73.5765 35.3001L60.8163 39.4966C60.1918 39.7021 59.702 40.1919 59.4965 40.8164L55.3 53.5766Z" stroke="white" stroke-width="2" stroke-linecap="round" stroke-linejoin="round"/>
<path d="M28.2823 73.8306C27.7695 75.3899 25.5638 75.3899 25.051 73.8306L21.8838 64.2006C21.715 63.6874 21.3127 63.2851 20.7995 63.1162L11.1694 59.9491C9.61018 59.4362 9.61018 57.2306 11.1694 56.7178L20.7995 53.5506C21.3127 53.3817 21.715 52.9794 21.8838 52.4662L25.051 42.8362C25.5638 41.2769 27.7695 41.2769 28.2823 42.8362L31.4495 52.4662C31.6183 52.9794 32.0207 53.3817 32.5338 53.5506L42.1638 56.7178C43.7232 57.2306 43.7232 59.4362 42.1638 59.9491L32.5338 63.1162C32.0207 63.2851 31.6183 63.6874 31.4495 64.2006L28.2823 73.8306Z" stroke="white" stroke-width="2" stroke-linecap="round" stroke-linejoin="round"/>
<path d="M21.4542 33.9475C20.9925 35.3508 19.0073 35.3508 18.5458 33.9475L15.6954 25.2805C15.5436 24.8187 15.1814 24.4565 14.7196 24.3045L6.05251 21.4542C4.64916 20.9925 4.64916 19.0073 6.05251 18.5458L14.7196 15.6954C15.1814 15.5436 15.5436 15.1814 15.6954 14.7196L18.5458 6.05251C19.0073 4.64916 20.9927 4.64916 21.4542 6.05251L24.3045 14.7196C24.4565 15.1814 24.8187 15.5436 25.2805 15.6954L33.9475 18.5458C35.3508 19.0073 35.3508 20.9927 33.9475 21.4542L25.2805 24.3045C24.8187 24.4565 24.4565 24.8187 24.3045 25.2805L21.4542 33.9475Z" stroke="white" stroke-width="2" stroke-linecap="round" stroke-linejoin="round"/>
</svg>
