<svg width="29" height="29" viewBox="0 0 29 29" fill="none" xmlns="http://www.w3.org/2000/svg">
<path d="M1 3.1875C1 1.92156 1.92134 1.09316 3.18617 1.04028C3.75659 1.01643 4.47584 1 5.375 1C6.27412 1 6.99337 1.01643 7.56381 1.04028C8.82869 1.09316 9.75 1.92156 9.75 3.1875C9.75 4.45344 8.82869 5.28184 7.56381 5.33473C6.99337 5.35858 6.27412 5.375 5.375 5.375C4.47584 5.375 3.75659 5.35858 3.18617 5.33473C1.92134 5.28184 1 4.45344 1 3.1875Z" stroke="#5255A5" stroke-width="2" stroke-linecap="round" stroke-linejoin="round"/>
<path d="M1 10.6875C1 9.42156 1.92134 8.59319 3.18617 8.54025C3.75659 8.51644 4.47584 8.5 5.375 8.5C6.27412 8.5 6.99337 8.51644 7.56381 8.54025C8.82869 8.59319 9.75 9.42156 9.75 10.6875C9.75 11.9534 8.82869 12.7818 7.56381 12.8348C6.99337 12.8586 6.27412 12.875 5.375 12.875C4.47584 12.875 3.75659 12.8586 3.18617 12.8348C1.92134 12.7818 1 11.9534 1 10.6875Z" stroke="#5255A5" stroke-width="2" stroke-linecap="round" stroke-linejoin="round"/>
<path d="M12.875 3.1875C12.875 1.92156 13.7963 1.09316 15.0612 1.04028C15.6316 1.01643 16.3509 1 17.25 1C18.1491 1 18.8684 1.01643 19.4388 1.04028C20.7037 1.09316 21.625 1.92156 21.625 3.1875C21.625 4.45344 20.7037 5.28184 19.4388 5.33473C18.8684 5.35858 18.1491 5.375 17.25 5.375C16.3509 5.375 15.6316 5.35858 15.0612 5.33473C13.7963 5.28184 12.875 4.45344 12.875 3.1875Z" stroke="#5255A5" stroke-width="2" stroke-linecap="round" stroke-linejoin="round"/>
<path d="M26.0176 27.875C27.7034 24.7677 27.9461 21.8126 27.8601 19.9053C27.7973 18.516 26.8897 17.3397 25.5707 16.8991C22.8373 15.9858 20.2964 15.9858 20.2964 15.9858C20.2964 14.8558 20.1202 12.2758 19.9938 10.5714C19.9202 9.57969 19.2592 8.71244 18.2744 8.57369C17.9624 8.52969 17.6275 8.5 17.2922 8.5C16.9546 8.5 16.6182 8.53012 16.3056 8.57456C15.3291 8.7135 14.6738 9.57175 14.6082 10.5559C14.4815 12.4561 14.2999 15.8223 14.2999 19.5085C14.2999 19.5085 13.2298 18.6705 11.5871 17.6619C10.7417 17.1428 9.65293 17.1028 9.00949 17.8579C8.63537 18.2969 8.26105 18.9008 8.02793 19.7059C7.90237 20.1398 8.00455 20.5991 8.2563 20.9742C9.17443 22.3423 11.6466 25.7926 14.5244 27.875" stroke="#5255A5" stroke-width="2" stroke-linecap="round" stroke-linejoin="round"/>
</svg>
