<svg width="24" height="28" viewBox="0 0 24 28" fill="none" xmlns="http://www.w3.org/2000/svg">
<path d="M17.296 3.22397C17.4856 2.18025 16.7403 1.20568 15.6813 1.14475C13.486 1.01842 9.75545 0.889184 6.09021 1.1572C5.20535 1.2219 4.44047 1.79378 4.12492 2.62299C2.27782 7.47745 1.39638 11.9613 1.02133 14.3347C0.866628 15.3136 1.57129 16.1854 2.56004 16.2533C4.03284 16.3544 6.30511 16.4597 8.93662 16.4063C8.66342 18.3528 8.37082 21.3427 8.07895 24.6331C7.93153 26.2948 9.88522 27.2107 11.0234 25.9911C15.5185 21.1746 19.6472 15.809 21.9162 12.7442C22.7427 11.6277 22.02 10.111 20.6314 10.0748C19.3987 10.0427 17.81 10.0278 15.8845 10.0625C16.4082 7.96193 16.8727 5.55336 17.296 3.22397Z" stroke="#5255A5" stroke-width="2" stroke-linejoin="round"/>
</svg>
