<svg width="24" height="24" viewBox="0 0 24 24" fill="none" xmlns="http://www.w3.org/2000/svg">
<g clip-path="url(#clip0_170_32)">
<mask id="mask0_170_32" style="mask-type:luminance" maskUnits="userSpaceOnUse" x="0" y="0" width="24" height="24">
<path d="M24 0H0V24H24V0Z" fill="white"/>
</mask>
<g mask="url(#mask0_170_32)">
<path d="M8.7892 2C9.8012 1.67531 10.8801 1.5 12 1.5C13.1199 1.5 14.1988 1.67531 15.2108 2M22.3097 10C22.4346 10.6474 22.5 11.3161 22.5 12C22.5 17.799 17.799 22.5 12 22.5C6.201 22.5 1.5 17.799 1.5 12C1.5 11.3161 1.56539 10.6474 1.69025 10" stroke="#6043A7" stroke-width="2" stroke-linecap="round" stroke-linejoin="round"/>
<path d="M12.0001 20C14.6204 20 16.8484 18.3203 17.6661 15.979C17.9974 15.0303 17.0238 14.2671 16.0348 14.4444C14.9632 14.6365 13.5422 14.8182 12.0001 14.8182C10.458 14.8182 9.03698 14.6365 7.96538 14.4444C6.97633 14.2671 6.00278 15.0303 6.33408 15.979C7.15178 18.3203 9.37978 20 12.0001 20Z" stroke="#6043A7" stroke-width="2" stroke-linecap="round" stroke-linejoin="round"/>
<path d="M17.5311 2.2685C17.6922 1.83303 18.3081 1.83303 18.4691 2.2685L19.5911 5.3031L22.101 6.55255C22.4705 6.7365 22.4705 7.26375 22.101 7.44775L19.5911 8.6972L18.4691 11.7317C18.3081 12.1672 17.6922 12.1672 17.5311 11.7317L16.4091 8.6972L13.8992 7.44775C13.5297 7.26375 13.5297 6.7365 13.8992 6.55255L16.4091 5.3031L17.5311 2.2685Z" stroke="#6043A7" stroke-width="2" stroke-linejoin="round"/>
<path d="M6.46883 2.2685C6.30783 1.83303 5.69193 1.83303 5.53088 2.2685L4.40887 5.3031L1.899 6.55255C1.52943 6.7365 1.52943 7.26375 1.899 7.44775L4.40887 8.6972L5.53088 11.7317C5.69193 12.1672 6.30783 12.1672 6.46883 11.7317L7.59088 8.6972L10.1007 7.44775C10.4703 7.26375 10.4703 6.7365 10.1007 6.55255L7.59088 5.3031L6.46883 2.2685Z" stroke="#6043A7" stroke-width="2" stroke-linejoin="round"/>
</g>
</g>
<defs>
<clipPath id="clip0_170_32">
<rect width="24" height="24" fill="white"/>
</clipPath>
</defs>
</svg>
