<svg width="26" height="26" viewBox="0 0 26 26" fill="none" xmlns="http://www.w3.org/2000/svg">
<path d="M9.4 9.4V8.4C8.84771 8.4 8.4 8.84771 8.4 9.4H9.4ZM9.51953 9.4H10.5195C10.5195 8.84771 10.0718 8.4 9.51953 8.4V9.4ZM16.6 9.4V8.4C16.0477 8.4 15.6 8.84771 15.6 9.4H16.6ZM16.7063 9.4H17.7063C17.7063 8.84771 17.2585 8.4 16.7063 8.4V9.4ZM9.51953 9.49609V10.4961C10.0718 10.4961 10.5195 10.0484 10.5195 9.49609H9.51953ZM9.4 9.49609H8.4C8.4 10.0484 8.84771 10.4961 9.4 10.4961V9.49609ZM16.7063 9.49609V10.4961C17.2585 10.4961 17.7063 10.0484 17.7063 9.49609H16.7063ZM16.6 9.49609H15.6C15.6 10.0484 16.0477 10.4961 16.6 10.4961V9.49609ZM9.69022 16.1226C9.39954 15.653 8.78321 15.508 8.31361 15.7987C7.84401 16.0893 7.69897 16.7057 7.98966 17.1753L9.69022 16.1226ZM18.0103 17.1753C18.301 16.7057 18.156 16.0893 17.6864 15.7987C17.2168 15.508 16.6005 15.653 16.3098 16.1226L18.0103 17.1753ZM24 13C24 19.0751 19.0751 24 13 24V26C20.1797 26 26 20.1797 26 13H24ZM13 24C6.92487 24 2 19.0751 2 13H0C0 20.1797 5.8203 26 13 26V24ZM2 13C2 6.92487 6.92487 2 13 2V0C5.8203 0 0 5.8203 0 13H2ZM13 2C19.0751 2 24 6.92487 24 13H26C26 5.8203 20.1797 0 13 0V2ZM9.4 10.4H9.51953V8.4H9.4V10.4ZM16.6 10.4H16.7063V8.4H16.6V10.4ZM8.51953 9.4V9.49609H10.5195V9.4H8.51953ZM9.51953 8.49609H9.4V10.4961H9.51953V8.49609ZM10.4 9.49609V9.4H8.4V9.49609H10.4ZM15.7063 9.4V9.49609H17.7063V9.4H15.7063ZM16.7063 8.49609H16.6V10.4961H16.7063V8.49609ZM17.6 9.49609V9.4H15.6V9.49609H17.6ZM13 17.9999C11.6204 17.9999 10.3953 17.2617 9.69022 16.1226L7.98966 17.1753C9.03439 18.863 10.8817 19.9999 13 19.9999V17.9999ZM16.3098 16.1226C15.6047 17.2617 14.3796 17.9999 13 17.9999V19.9999C15.1183 19.9999 16.9656 18.863 18.0103 17.1753L16.3098 16.1226Z" fill="#6043A7"/>
</svg>
