<svg width="422" height="75" viewBox="0 0 422 75" fill="none" xmlns="http://www.w3.org/2000/svg">
<path d="M66.144 73.44L52.416 22.368H51.648L41.184 72L32.544 73.44L11.712 26.112H11.136L9.6 72L0 72.48L4.512 9.6L27.744 8.64L37.44 54.336L48.672 8.16L71.904 9.6L74.784 72L66.144 73.44Z" fill="#6043A7"/>
<path d="M102.38 20.256C117.868 26.464 125.612 34.176 125.612 43.392C125.612 48.192 124.235 51.68 121.483 53.856C118.795 55.968 113.772 57.024 106.412 57.024C101.74 57.024 97.8995 56.672 94.8915 55.968C93.6755 58.976 93.0675 62.112 93.0675 65.376C95.9475 65.76 99.2115 65.952 102.86 65.952C109.516 65.952 115.787 64.896 121.675 62.784L124.556 72.096C119.884 73.568 114.635 74.304 108.812 74.304C98.4435 74.304 90.8275 72.416 85.9635 68.64C84.9395 64.096 84.4275 59.808 84.4275 55.776C84.4275 47.712 86.1875 40.448 89.7075 33.984C93.2915 27.52 97.5155 22.944 102.38 20.256ZM96.8115 51.456C97.6435 51.52 99.7235 51.552 103.052 51.552C106.444 51.552 110.316 51.104 114.668 50.208C114.86 48.992 114.956 47.776 114.956 46.56C114.956 42.72 113.9 39.04 111.788 35.52C105.452 39.744 100.46 45.056 96.8115 51.456Z" fill="#6043A7"/>
<path d="M170.557 21.792C171.773 21.792 172.957 21.984 174.109 22.368C176.605 25.44 178.621 31.008 180.157 39.072H180.925C183.229 33.696 185.885 29.472 188.893 26.4C191.965 23.328 195.133 21.792 198.397 21.792C199.613 21.792 200.797 21.984 201.949 22.368C205.213 26.336 207.453 33.28 208.669 43.2C209.885 53.12 210.493 62.912 210.493 72.576L193.213 73.44C193.213 58.336 192.733 44.928 191.773 33.216C184.093 36.288 179.005 49.408 176.509 72.576L165.373 73.44C165.373 58.336 164.893 44.928 163.933 33.216C161.053 34.368 158.237 37.44 155.485 42.432C152.797 47.36 150.813 55.072 149.533 65.568L148.669 72.576L139.165 73.44L134.269 25.824L154.813 22.656L152.989 37.632H153.661C158.589 27.072 164.221 21.792 170.557 21.792Z" fill="#6043A7"/>
<path d="M261.247 54.336C261.247 61.312 259.711 66.4 256.639 69.6C253.631 72.736 248.031 74.304 239.839 74.304C231.647 74.304 225.247 72.448 220.639 68.736C219.679 64.128 219.199 59.52 219.199 54.912C219.199 50.304 219.839 45.984 221.119 41.952C222.463 37.856 224.127 34.368 226.111 31.488C230.271 25.6 233.983 21.856 237.247 20.256C243.391 23.392 248.799 27.648 253.471 33.024C258.655 38.912 261.247 46.016 261.247 54.336ZM250.111 51.744C250.111 45.664 248.831 40.096 246.271 35.04C240.959 37.856 236.575 42.144 233.119 47.904C229.663 53.664 227.935 59.488 227.935 65.376C229.983 65.76 232.927 65.952 236.767 65.952C240.607 65.952 244.543 65.28 248.575 63.936C249.599 60.032 250.111 55.968 250.111 51.744Z" fill="#6043A7"/>
<path d="M294.759 0L298.311 16.416C292.423 18.464 288.263 21.952 285.831 26.88L301.671 26.016L301.383 32.448L291.879 33.888L287.175 72.576L277.671 73.44L273.831 36.576L265.671 37.824L265.095 27.936L273.735 27.552C274.247 18.976 276.519 12.416 280.551 7.872C284.583 3.264 289.319 0.640003 294.759 0Z" fill="#6043A7"/>
<path d="M335.527 60.768C337.895 57.696 339.527 54.368 340.423 50.784C341.319 47.2 341.767 44.096 341.767 41.472C341.767 38.784 341.383 33.6 340.615 25.92L361.159 22.752L355.015 72.576L345.511 73.44L343.591 55.2H342.919C338.183 67.872 330.631 74.208 320.263 74.208C318.727 74.208 317.447 73.952 316.423 73.44C313.159 69.472 310.919 62.752 309.703 53.28C308.487 43.744 307.879 34.24 307.879 24.768L327.079 23.328C325.927 34.528 325.351 42.912 325.351 48.48C325.351 54.048 325.831 60.032 326.791 66.432C330.311 65.664 333.223 63.776 335.527 60.768Z" fill="#6043A7"/>
<path d="M409.488 21.792C410.704 21.792 411.888 21.984 413.04 22.368C416.304 26.336 418.544 33.216 419.76 43.008C420.976 52.736 421.584 62.4 421.584 72L404.304 73.44C404.304 58.72 403.76 45.312 402.672 33.216C394.16 36.352 388.496 49.472 385.68 72.576L376.176 73.44L371.28 25.824L391.824 22.656L389.712 39.552H390.576C393.136 33.984 396.048 29.632 399.312 26.496C402.576 23.36 405.968 21.792 409.488 21.792Z" fill="#6043A7"/>
</svg>
