<svg width="423" height="75" viewBox="0 0 423 75" fill="none" xmlns="http://www.w3.org/2000/svg">
<path d="M66.8239 73.44L53.0959 22.368H52.3279L41.8639 72L33.2239 73.44L12.3919 26.112H11.8159L10.2799 72L0.679932 72.48L5.19193 9.6L28.4239 8.64L38.1199 54.336L49.3519 8.16L72.5839 9.6L75.4639 72L66.8239 73.44Z" fill="white"/>
<path d="M103.059 20.256C118.547 26.464 126.291 34.176 126.291 43.392C126.291 48.192 124.915 51.68 122.163 53.856C119.475 55.968 114.451 57.024 107.091 57.024C102.419 57.024 98.5794 56.672 95.5714 55.968C94.3554 58.976 93.7474 62.112 93.7474 65.376C96.6274 65.76 99.8914 65.952 103.539 65.952C110.195 65.952 116.467 64.896 122.355 62.784L125.235 72.096C120.563 73.568 115.315 74.304 109.491 74.304C99.1234 74.304 91.5074 72.416 86.6434 68.64C85.6194 64.096 85.1074 59.808 85.1074 55.776C85.1074 47.712 86.8674 40.448 90.3874 33.984C93.9714 27.52 98.1954 22.944 103.059 20.256ZM97.4914 51.456C98.3234 51.52 100.403 51.552 103.731 51.552C107.123 51.552 110.995 51.104 115.347 50.208C115.539 48.992 115.635 47.776 115.635 46.56C115.635 42.72 114.579 39.04 112.467 35.52C106.131 39.744 101.139 45.056 97.4914 51.456Z" fill="white"/>
<path d="M171.237 21.792C172.453 21.792 173.637 21.984 174.789 22.368C177.285 25.44 179.301 31.008 180.837 39.072H181.605C183.909 33.696 186.565 29.472 189.573 26.4C192.645 23.328 195.813 21.792 199.077 21.792C200.293 21.792 201.477 21.984 202.629 22.368C205.893 26.336 208.133 33.28 209.349 43.2C210.565 53.12 211.173 62.912 211.173 72.576L193.893 73.44C193.893 58.336 193.413 44.928 192.453 33.216C184.773 36.288 179.685 49.408 177.189 72.576L166.053 73.44C166.053 58.336 165.573 44.928 164.613 33.216C161.733 34.368 158.917 37.44 156.165 42.432C153.477 47.36 151.493 55.072 150.213 65.568L149.349 72.576L139.845 73.44L134.949 25.824L155.493 22.656L153.669 37.632H154.341C159.269 27.072 164.901 21.792 171.237 21.792Z" fill="white"/>
<path d="M261.927 54.336C261.927 61.312 260.391 66.4 257.319 69.6C254.311 72.736 248.711 74.304 240.519 74.304C232.327 74.304 225.927 72.448 221.319 68.736C220.359 64.128 219.879 59.52 219.879 54.912C219.879 50.304 220.519 45.984 221.799 41.952C223.143 37.856 224.807 34.368 226.791 31.488C230.951 25.6 234.663 21.856 237.927 20.256C244.071 23.392 249.479 27.648 254.151 33.024C259.335 38.912 261.927 46.016 261.927 54.336ZM250.791 51.744C250.791 45.664 249.511 40.096 246.951 35.04C241.639 37.856 237.255 42.144 233.799 47.904C230.343 53.664 228.615 59.488 228.615 65.376C230.663 65.76 233.607 65.952 237.447 65.952C241.287 65.952 245.223 65.28 249.255 63.936C250.279 60.032 250.791 55.968 250.791 51.744Z" fill="white"/>
<path d="M295.439 0L298.991 16.416C293.103 18.464 288.943 21.952 286.511 26.88L302.351 26.016L302.063 32.448L292.559 33.888L287.855 72.576L278.351 73.44L274.511 36.576L266.351 37.824L265.775 27.936L274.415 27.552C274.927 18.976 277.199 12.416 281.231 7.872C285.263 3.264 289.999 0.640003 295.439 0Z" fill="white"/>
<path d="M336.207 60.768C338.575 57.696 340.207 54.368 341.103 50.784C341.999 47.2 342.447 44.096 342.447 41.472C342.447 38.784 342.063 33.6 341.295 25.92L361.839 22.752L355.695 72.576L346.191 73.44L344.271 55.2H343.599C338.863 67.872 331.311 74.208 320.943 74.208C319.407 74.208 318.127 73.952 317.103 73.44C313.839 69.472 311.599 62.752 310.383 53.28C309.167 43.744 308.559 34.24 308.559 24.768L327.759 23.328C326.607 34.528 326.031 42.912 326.031 48.48C326.031 54.048 326.511 60.032 327.471 66.432C330.991 65.664 333.903 63.776 336.207 60.768Z" fill="white"/>
<path d="M410.168 21.792C411.384 21.792 412.568 21.984 413.72 22.368C416.984 26.336 419.224 33.216 420.44 43.008C421.656 52.736 422.264 62.4 422.264 72L404.984 73.44C404.984 58.72 404.44 45.312 403.352 33.216C394.84 36.352 389.176 49.472 386.36 72.576L376.856 73.44L371.96 25.824L392.504 22.656L390.392 39.552H391.256C393.816 33.984 396.728 29.632 399.992 26.496C403.256 23.36 406.648 21.792 410.168 21.792Z" fill="white"/>
</svg>
